<svg xmlns="http://www.w3.org/2000/svg" version="1.1" xmlns:xlink="http://www.w3.org/1999/xlink" xmlns:svgjs="http://svgjs.dev/svgjs" width="2000" height="1247" viewBox="0 0 2000 1247"><g transform="matrix(1,0,0,1,-1.2121212121212466,0.5048582995951847)"><svg viewBox="0 0 396 247" data-background-color="#ffffff" preserveAspectRatio="xMidYMid meet" height="1247" width="2000" xmlns="http://www.w3.org/2000/svg" xmlns:xlink="http://www.w3.org/1999/xlink"><g id="tight-bounds" transform="matrix(1,0,0,1,0.2400000000000091,-0.09999999999999432)"><svg viewBox="0 0 395.52 247.2" height="247.2" width="395.52"><g><svg></svg></g><g><svg viewBox="0 0 395.52 247.2" height="247.2" width="395.52"><g transform="matrix(1,0,0,1,75.54432,54.466992457813646)"><svg viewBox="0 0 244.43135999999998 138.2660150843727" height="138.2660150843727" width="244.43135999999998"><g><svg viewBox="0 0 244.43135999999998 138.2660150843727" height="138.2660150843727" width="244.43135999999998"><g><svg viewBox="0 0 244.43135999999998 138.2660150843727" height="138.2660150843727" width="244.43135999999998"><g><svg viewBox="0 0 244.43135999999998 138.2660150843727" height="138.2660150843727" width="244.43135999999998"><g><svg viewBox="0 0 244.43135999999998 138.2660150843727" height="138.2660150843727" width="244.43135999999998"><g><svg viewBox="0 0 244.43135999999998 138.2660150843727" height="138.2660150843727" width="244.43135999999998"><g transform="matrix(1,0,0,1,0,0)"><svg width="244.43135999999998" viewBox="2 -37.45000076293945 66.55000305175781 37.650001525878906" height="138.2660150843727" data-palette-color="#bb84e8"><path d="M2-1.27L2-1.27 2.25-35.64Q2.78-37.45 6.45-37.45L6.45-37.45Q9.81-37.45 12.65-36.55 15.48-35.64 17.41-33.52 19.34-31.4 19.34-28.42L19.34-28.42Q19.34-26.07 18.19-23.88 17.04-21.68 15.38-21.04L15.38-21.04Q18.51-20.61 20.41-17.29 22.31-13.96 22.31-9.42L22.31-9.42Q22.31-6.35 19.87-4.08 17.43-1.81 14.18-0.81 10.94 0.2 7.62 0.2L7.62 0.2Q3.56 0.2 2-1.27ZM6.01-18.36L6.01-18.36Q6.01-14.99 5.91-4.83L5.91-4.83Q7.37-3.17 9.67-3.17L9.67-3.17Q12.7-3.17 15.53-5.69 18.36-8.2 18.36-11.08L18.36-11.08Q18.36-14.65 15.97-16.65 13.57-18.65 9.81-18.65L9.81-18.65Q7.32-18.65 6.01-18.36ZM5.91-21.97L5.91-21.97 8.94-22.02Q12.06-22.02 13.75-23.85 15.43-25.68 15.43-28.22L15.43-28.22Q15.43-30.81 13.72-32.69 12.01-34.57 8.98-34.57L8.98-34.57Q7.62-34.57 5.76-33.98L5.76-33.98Q5.86-31.01 5.88-26.61 5.91-22.22 5.91-21.97ZM45.94-4.74L45.94-4.74 46.43-2.59Q44.28-1.81 40.06-0.85 35.84 0.1 33.79 0.1L33.79 0.1Q31.69 0.1 30.12-1.29 28.56-2.69 27.78-4.86 27-7.03 26.63-9.16 26.27-11.28 26.27-13.33L26.27-13.33Q26.27-25.54 37.3-25.54L37.3-25.54Q39.94-25.54 41.94-23.85 43.94-22.17 43.94-19.48L43.94-19.48Q43.94-18.02 43.14-16.89 42.33-15.77 41.18-15.11 40.04-14.45 38.25-13.92 36.47-13.38 35.1-13.13 33.74-12.89 31.83-12.6 29.93-12.3 29.2-12.16L29.2-12.16Q29.25-10.74 29.37-9.67 29.49-8.59 29.86-7.35 30.22-6.1 30.83-5.3 31.44-4.49 32.52-3.96 33.59-3.42 35.06-3.42L35.06-3.42Q36.81-3.42 39.35-3.74 41.89-4.05 43.87-4.39 45.85-4.74 45.94-4.74ZM29.39-15.19L29.39-15.19Q36.03-17.09 40.28-19.19L40.28-19.19Q39.94-20.8 39.35-21.53 38.77-22.27 37.6-22.27L37.6-22.27Q34.62-22.27 32.2-20.21 29.78-18.16 29.39-15.19ZM68.06-4.74L68.06-4.74 68.55-2.59Q66.4-1.81 62.18-0.85 57.95 0.1 55.9 0.1L55.9 0.1Q53.8 0.1 52.24-1.29 50.68-2.69 49.9-4.86 49.12-7.03 48.75-9.16 48.38-11.28 48.38-13.33L48.38-13.33Q48.38-25.54 59.42-25.54L59.42-25.54Q62.06-25.54 64.06-23.85 66.06-22.17 66.06-19.48L66.06-19.48Q66.06-18.02 65.25-16.89 64.45-15.77 63.3-15.11 62.15-14.45 60.37-13.92 58.59-13.38 57.22-13.13 55.85-12.89 53.95-12.6 52.05-12.3 51.31-12.16L51.31-12.16Q51.36-10.74 51.48-9.67 51.61-8.59 51.97-7.35 52.34-6.1 52.95-5.3 53.56-4.49 54.63-3.96 55.71-3.42 57.17-3.42L57.17-3.42Q58.93-3.42 61.47-3.74 64.01-4.05 65.99-4.39 67.96-4.74 68.06-4.74ZM51.51-15.19L51.51-15.19Q58.15-17.09 62.4-19.19L62.4-19.19Q62.06-20.8 61.47-21.53 60.88-22.27 59.71-22.27L59.71-22.27Q56.73-22.27 54.32-20.21 51.9-18.16 51.51-15.19Z" opacity="1" transform="matrix(1,0,0,1,0,0)" fill="#bb84e8" class="undefined-text-0" data-fill-palette-color="primary" id="text-0"></path></svg></g></svg></g></svg></g></svg></g></svg></g></svg></g></svg></g><g><path d="M245.816 0c68.262 0 123.6 55.338 123.6 123.6 0 68.262-55.338 123.6-123.6 123.6-35.11 0-66.8-14.639-89.301-38.146h8.849c21.009 19.786 49.314 31.912 80.452 31.912 64.819 0 117.366-52.546 117.365-117.366 0-64.819-52.546-117.366-117.365-117.366-31.137 0-59.442 12.125-80.452 31.912l-8.849 0c22.501-23.507 54.191-38.146 89.301-38.146z" fill="#bb84e8" stroke="transparent" data-fill-palette-color="tertiary"></path></g></svg></g><defs></defs></svg><rect width="395.52" height="247.2" fill="none" stroke="none" visibility="hidden"></rect></g></svg></g></svg>